<svg width="28" height="27" viewBox="0 0 28 27" fill="none" xmlns="http://www.w3.org/2000/svg">
<path fill-rule="evenodd" clip-rule="evenodd" d="M5.04055 0.560059H22.9605C25.4348 0.560059 27.4405 2.56582 27.4405 5.04006V14.0001C27.4405 16.4743 25.4348 18.4801 22.9605 18.4801H5.04055C2.56631 18.4801 0.560547 16.4743 0.560547 14.0001V5.04006C0.560547 2.56582 2.56631 0.560059 5.04055 0.560059ZM27.4405 17.8401V17.2001C27.4405 17.2001 26.4734 19.543 22.9605 19.7601H5.04055C1.45248 19.4951 0.560547 17.2001 0.560547 17.2001V17.8401C0.560547 20.3143 2.56631 22.3201 5.04055 22.3201H22.9605C25.4348 22.3201 27.4405 20.3143 27.4405 17.8401ZM27.4405 21.6801V21.0401C27.4405 21.0401 26.4734 23.383 22.9605 23.6001H5.04055C1.45248 23.3351 0.560547 21.0401 0.560547 21.0401V21.6801C0.560547 24.1543 2.56631 26.1601 5.04055 26.1601H22.9605C25.4348 26.1601 27.4405 24.1543 27.4405 21.6801ZM16.5606 5.68006H14.6405V5.04006C14.6405 4.6866 14.354 4.40006 14.0005 4.40006C13.6471 4.40006 13.3605 4.6866 13.3605 5.04006V5.68006H12.7384C11.678 5.68006 10.8184 6.53967 10.8184 7.60006V8.24103C10.8184 9.30141 11.678 10.161 12.7384 10.161H15.2806C15.634 10.161 15.9206 10.4476 15.9206 10.801V11.4401C15.9206 11.7935 15.634 12.0801 15.2806 12.0801H12.0962C12.0699 11.7599 11.8066 11.5036 11.4779 11.4936C11.1246 11.4829 10.8294 11.7606 10.8187 12.1139L10.8008 12.7006C10.7899 13.0615 11.0795 13.3601 11.4406 13.3601H13.3605V13.9888C13.3605 14.3423 13.6471 14.6288 14.0005 14.6288C14.354 14.6288 14.6405 14.3423 14.6405 13.9888V13.3601H15.2806C16.3409 13.3601 17.2006 12.5004 17.2006 11.4401V10.801C17.2006 9.74064 16.3409 8.88103 15.2806 8.88103H12.7384C12.3849 8.88103 12.0984 8.59449 12.0984 8.24103V7.60006C12.0984 7.2466 12.3849 6.96006 12.7384 6.96006H15.9396C16.009 7.23839 16.2607 7.44459 16.5606 7.44459C16.914 7.44459 17.2006 7.15805 17.2006 6.80459V6.32006C17.2006 5.9666 16.914 5.68006 16.5606 5.68006Z" fill="#5C6AC4"/>
</svg>
