<svg width="16" height="13" viewBox="0 0 16 13" fill="none" xmlns="http://www.w3.org/2000/svg">
<path fill-rule="evenodd" clip-rule="evenodd" d="M13.0404 0.600098H2.96043C1.56867 0.600098 0.44043 1.72834 0.44043 3.1201V3.4801H15.5604V3.1201C15.5604 1.72834 14.4322 0.600098 13.0404 0.600098ZM0.44043 9.6001V6.3601H15.5604V9.6001C15.5604 10.9919 14.4322 12.1201 13.0404 12.1201H2.96043C1.56867 12.1201 0.44043 10.9919 0.44043 9.6001ZM13.0404 9.9601H10.1604C9.96161 9.9601 9.80043 9.79892 9.80043 9.6001C9.80043 9.40127 9.96161 9.2401 10.1604 9.2401H13.0404C13.2393 9.2401 13.4004 9.40127 13.4004 9.6001C13.4004 9.79892 13.2393 9.9601 13.0404 9.9601ZM0.44043 5.6401V4.2001H15.5604V5.6401H0.44043Z" fill="white"/>
</svg>
