<svg width="22" height="22" viewBox="0 0 22 22" fill="none" xmlns="http://www.w3.org/2000/svg">
<path fill-rule="evenodd" clip-rule="evenodd" d="M12.7598 1.75977H9.23977C8.24455 1.75977 7.40368 2.42059 7.13201 3.32739C4.12198 3.61732 1.76857 6.15371 1.76857 9.23977V15.1651C1.76274 15.2425 1.75977 15.3208 1.75977 15.3998V17.1598C1.75977 18.8608 3.13873 20.2398 4.83977 20.2398H5.27977V12.3198H4.83977C4.18922 12.3198 3.58579 12.5215 3.08857 12.8657V9.23977C3.08857 6.87685 4.86248 4.92825 7.15123 4.65304C7.44164 5.52838 8.26697 6.15977 9.23977 6.15977H12.7598C13.7335 6.15977 14.5594 5.52722 14.8491 4.65064C17.1477 4.9167 18.9321 6.86984 18.9321 9.23977V12.8805C18.4309 12.5272 17.8196 12.3198 17.1598 12.3198H16.7198V20.2398H17.1598C18.8608 20.2398 20.2398 18.8608 20.2398 17.1598V16.4998H20.2521V9.23977C20.2521 6.14627 17.8874 3.6051 14.8669 3.32533C14.5946 2.41959 13.7542 1.75977 12.7598 1.75977ZM7.47977 12.3198H6.15977V20.2398H7.47977C7.72277 20.2398 7.91977 20.0428 7.91977 19.7998V12.7598C7.91977 12.5168 7.72277 12.3198 7.47977 12.3198ZM14.5198 12.3198H15.8398V20.2398H14.5198C14.2768 20.2398 14.0798 20.0428 14.0798 19.7998V12.7598C14.0798 12.5168 14.2768 12.3198 14.5198 12.3198Z" fill="#454F5B"/>
</svg>
