<svg width="20" height="16" viewBox="0 0 20 16" fill="none" xmlns="http://www.w3.org/2000/svg">
<path fill-rule="evenodd" clip-rule="evenodd" d="M0.759766 8.44002H10.4398V2.72002C10.4398 1.86532 10.9272 1.12446 11.6392 0.760207C11.4244 0.608886 11.1625 0.52002 10.8798 0.52002H2.07977C1.35075 0.52002 0.759766 1.111 0.759766 1.84002V8.44002ZM19.2398 10.64C19.2398 10.3019 19.1126 9.99348 18.9036 9.75994C19.1126 9.5264 19.2398 9.21798 19.2398 8.87986V7.56002H16.1598C15.4307 7.56002 14.8398 6.96904 14.8398 6.24002V4.48002C14.8398 3.751 15.4307 3.16002 16.1598 3.16002H18.5109L18.4885 3.0687C18.3602 2.54678 17.9283 2.15473 17.3965 2.07744L12.8296 1.41374C12.7667 1.40461 12.7033 1.40002 12.6398 1.40002C11.9107 1.40002 11.3198 1.991 11.3198 2.72002V8.87986C11.3198 9.0342 11.3463 9.18235 11.3949 9.32002H2.07977C1.35075 9.32002 0.759766 9.911 0.759766 10.64V11.52C0.759766 12.249 1.35075 12.84 2.07977 12.84H2.55096C2.76446 11.3474 4.04812 10.2 5.59977 10.2C7.15141 10.2 8.43507 11.3474 8.64857 12.84H12.231C12.4445 11.3474 13.7281 10.2 15.2798 10.2C16.81 10.2 18.0796 11.316 18.3191 12.7785C18.8529 12.6093 19.2398 12.1098 19.2398 11.52V10.64ZM19.2016 5.97051L18.7272 4.04002H16.1598C15.9168 4.04002 15.7198 4.23701 15.7198 4.48002V6.24002C15.7198 6.48303 15.9168 6.68002 16.1598 6.68002H19.2398V6.28553C19.2398 6.17937 19.227 6.0736 19.2016 5.97051ZM7.79977 13.28C7.79977 14.495 6.81479 15.48 5.59977 15.48C4.38474 15.48 3.39977 14.495 3.39977 13.28C3.39977 12.065 4.38474 11.08 5.59977 11.08C6.81479 11.08 7.79977 12.065 7.79977 13.28ZM17.4798 13.28C17.4798 14.495 16.4948 15.48 15.2798 15.48C14.0647 15.48 13.0798 14.495 13.0798 13.28C13.0798 12.065 14.0647 11.08 15.2798 11.08C16.4948 11.08 17.4798 12.065 17.4798 13.28Z" fill="white"/>
</svg>
