<svg width="18" height="18" viewBox="0 0 18 18" fill="none" xmlns="http://www.w3.org/2000/svg">
<path fill-rule="evenodd" clip-rule="evenodd" d="M3.18711 4.02208L3.0351 2.77486C2.98035 2.24612 2.5296 1.84405 1.99168 1.84405H1.42967C1.08193 1.84405 0.800049 1.56556 0.800049 1.22207C0.800049 0.878579 1.08193 0.600098 1.42967 0.600098H1.99168C3.17547 0.600098 4.16733 1.48486 4.28782 2.64826L4.40253 3.75596H17.1803C17.4444 3.75596 17.6429 3.9942 17.5921 4.2503L16.4758 9.87434C16.2055 11.2358 14.9976 12.2179 13.5933 12.2179H6.90285C7.09581 13.059 7.85669 13.6687 8.74424 13.6687H14.0138C14.0449 13.6687 14.0757 13.671 14.0602 13.6737C14.1064 13.6704 14.1528 13.6687 14.1994 13.6687C15.2424 13.6687 16.0879 14.5041 16.0879 15.5344C16.0879 16.5648 15.2424 17.4001 14.1994 17.4001C13.1564 17.4001 12.3109 16.5648 12.3109 15.5344C12.3109 15.3197 12.3477 15.1101 12.4183 14.9127H10.1057C10.1763 15.1101 10.2131 15.3197 10.2131 15.5344C10.2131 16.5648 9.36761 17.4001 8.32461 17.4001C7.28161 17.4001 6.43611 16.5648 6.43611 15.5344C6.43611 15.08 6.60167 14.6518 6.89261 14.318C6.17691 13.8031 5.70479 13.0088 5.61325 12.1224L5.60358 12.0288C4.57889 11.6434 3.82264 10.7066 3.7219 9.56878L3.46815 6.70261C3.46387 6.68488 3.46072 6.66667 3.45879 6.64805L3.18711 4.02208ZM8.32461 16.3636C8.78811 16.3636 9.16386 15.9923 9.16386 15.5344C9.16386 15.0765 8.78811 14.7053 8.32461 14.7053C7.86111 14.7053 7.48536 15.0765 7.48536 15.5344C7.48536 15.9923 7.86111 16.3636 8.32461 16.3636ZM14.1994 16.3636C14.6629 16.3636 15.0386 15.9923 15.0386 15.5344C15.0386 15.0765 14.6629 14.7053 14.1994 14.7053C13.7359 14.7053 13.3601 15.0765 13.3601 15.5344C13.3601 15.9923 13.7359 16.3636 14.1994 16.3636Z" fill="white"/>
</svg>
