<svg width="20" height="21" viewBox="0 0 20 21" fill="none" xmlns="http://www.w3.org/2000/svg">
<path fill-rule="evenodd" clip-rule="evenodd" d="M0.333008 5.87516C0.333008 6.47385 0.715628 6.98316 1.24967 7.17192H18.6663C19.2004 6.98316 19.583 6.47385 19.583 5.87516V2.2085C19.583 1.4491 18.9674 0.833496 18.208 0.833496H1.70801C0.948616 0.833496 0.333008 1.4491 0.333008 2.2085V5.87516ZM18.6663 8.08859H1.24967V16.8752C1.24967 18.6471 2.68609 20.0835 4.45801 20.0835H15.458C17.2299 20.0835 18.6663 18.6471 18.6663 16.8752V8.08859ZM7.20801 10.0002H12.708C12.9611 10.0002 13.1663 10.2054 13.1663 10.4585C13.1663 10.7116 12.9611 10.9168 12.708 10.9168H7.20801C6.95488 10.9168 6.74967 10.7116 6.74967 10.4585C6.74967 10.2054 6.95488 10.0002 7.20801 10.0002Z" fill="white"/>
</svg>
