<svg width="18" height="18" viewBox="0 0 18 18" fill="none" xmlns="http://www.w3.org/2000/svg">
<path fill-rule="evenodd" clip-rule="evenodd" d="M5.4002 1.60996C5.4002 1.4995 5.48974 1.40996 5.60019 1.40996H10.4002C10.7316 1.40996 11.0002 1.14133 11.0002 0.809961C11.0002 0.47859 10.7316 0.209961 10.4002 0.209961H5.17489C4.7594 0.209961 4.36538 0.394513 4.09939 0.713703L0.524686 5.00334C0.315018 5.25494 0.200195 5.57209 0.200195 5.8996V14.41C0.200195 16.0668 1.54334 17.41 3.2002 17.41H12.8002C14.457 17.41 15.8002 16.0668 15.8002 14.41C15.8002 14.0786 15.5316 13.81 15.2002 13.81C14.8688 13.81 14.6002 14.0786 14.6002 14.41C14.6002 15.4041 13.7943 16.21 12.8002 16.21H3.2002C2.20608 16.21 1.4002 15.4041 1.4002 14.41V6.40996C1.4002 6.2995 1.48974 6.20996 1.6002 6.20996H4.0002C4.77339 6.20996 5.4002 5.58316 5.4002 4.80996V1.60996ZM2.08122 5.00996L4.2002 2.46719V4.80996C4.2002 4.92042 4.11066 5.00996 4.0002 5.00996H2.08122ZM13.2002 3.00024H17.2002V1.51369C17.2002 1.00574 16.779 0.600244 16.2669 0.600244H14.1335C13.6214 0.600244 13.2002 1.00574 13.2002 1.51369V3.00024ZM17.2002 8.19206V3.80024H13.2002V8.19206C13.2002 8.2978 13.2421 8.39923 13.3166 8.47418L14.9166 10.0824C15.073 10.2395 15.3274 10.2395 15.4838 10.0824L17.0838 8.47418C17.1583 8.39923 17.2002 8.2978 17.2002 8.19206ZM6.40019 8.80024C6.06882 8.80024 5.80019 8.53162 5.80019 8.20024C5.80019 7.86887 6.06882 7.60024 6.40019 7.60024H10.4002C10.7316 7.60024 11.0002 7.86887 11.0002 8.20024C11.0002 8.53162 10.7316 8.80024 10.4002 8.80024H6.40019ZM6.4002 12.8002C6.06882 12.8002 5.80019 12.5316 5.80019 12.2002C5.80019 11.8689 6.06882 11.6002 6.4002 11.6002H10.4002C10.7316 11.6002 11.0002 11.8689 11.0002 12.2002C11.0002 12.5316 10.7316 12.8002 10.4002 12.8002H6.4002Z" fill="#919EAB"/>
</svg>
