<svg width="16" height="16" viewBox="0 0 16 16" fill="none" xmlns="http://www.w3.org/2000/svg">
<path fill-rule="evenodd" clip-rule="evenodd" d="M1.5999 0.399902H5.5999C6.26264 0.399902 6.7999 0.937161 6.7999 1.5999V5.5999C6.7999 6.26264 6.26264 6.7999 5.5999 6.7999H1.5999C0.937161 6.7999 0.399902 6.26264 0.399902 5.5999V1.5999C0.399902 0.937161 0.937161 0.399902 1.5999 0.399902ZM10.3999 9.1999H14.3999C15.0626 9.1999 15.5999 9.73716 15.5999 10.3999V14.3999C15.5999 15.0626 15.0626 15.5999 14.3999 15.5999H10.3999C9.73716 15.5999 9.1999 15.0626 9.1999 14.3999V10.3999C9.1999 9.73716 9.73716 9.1999 10.3999 9.1999ZM10.3999 0.399902H14.3999C15.0626 0.399902 15.5999 0.937161 15.5999 1.5999V5.5999C15.5999 6.26264 15.0626 6.7999 14.3999 6.7999H10.3999C9.73716 6.7999 9.1999 6.26264 9.1999 5.5999V1.5999C9.1999 0.937161 9.73716 0.399902 10.3999 0.399902ZM1.5999 9.1999H5.5999C6.26264 9.1999 6.7999 9.73716 6.7999 10.3999V14.3999C6.7999 15.0626 6.26264 15.5999 5.5999 15.5999H1.5999C0.937161 15.5999 0.399902 15.0626 0.399902 14.3999V10.3999C0.399902 9.73716 0.937161 9.1999 1.5999 9.1999Z" fill="white"/>
</svg>
