<svg width="15" height="13" viewBox="0 0 15 13" fill="none" xmlns="http://www.w3.org/2000/svg">
<path fill-rule="evenodd" clip-rule="evenodd" d="M0.800195 1.4002C0.468824 1.4002 0.200195 1.13157 0.200195 0.800195C0.200195 0.468825 0.468824 0.200195 0.800195 0.200195H13.6002C13.9316 0.200195 14.2002 0.468825 14.2002 0.800195C14.2002 1.13157 13.9316 1.4002 13.6002 1.4002H0.800195ZM0.800195 12.6002C0.468824 12.6002 0.200195 12.3316 0.200195 12.0002C0.200195 11.6688 0.468824 11.4002 0.800195 11.4002H13.6002C13.9316 11.4002 14.2002 11.6688 14.2002 12.0002C14.2002 12.3316 13.9316 12.6002 13.6002 12.6002H0.800195ZM0.200195 6.4002C0.200195 6.73157 0.468824 7.0002 0.800195 7.0002H13.6002C13.9316 7.0002 14.2002 6.73157 14.2002 6.4002C14.2002 6.06882 13.9316 5.8002 13.6002 5.8002H0.800195C0.468824 5.8002 0.200195 6.06882 0.200195 6.4002Z" fill="#454F5B"/>
</svg>
