<svg width="17" height="17" viewBox="0 0 17 17" fill="none" xmlns="http://www.w3.org/2000/svg">
<path fill-rule="evenodd" clip-rule="evenodd" d="M14.0252 13.0077L16.4689 15.4507C17.1478 16.1294 16.1297 17.1478 15.4508 16.469L13.0069 14.0258C10.0712 16.4471 5.74031 16.2621 3.01897 13.5407C0.113469 10.6352 0.113469 5.92447 3.01897 3.01897C5.92447 0.113469 10.6352 0.113469 13.5407 3.01897C16.2623 5.74058 16.4471 10.072 14.0252 13.0077ZM12.5225 4.0372C10.1793 1.69406 6.38035 1.69406 4.0372 4.0372C1.69406 6.38035 1.69406 10.1793 4.0372 12.5225C6.38035 14.8656 10.1793 14.8656 12.5225 12.5225C14.8656 10.1793 14.8656 6.38035 12.5225 4.0372Z" fill="white"/>
</svg>
