<svg width="14" height="14" viewBox="0 0 14 14" fill="none" xmlns="http://www.w3.org/2000/svg">
<path fill-rule="evenodd" clip-rule="evenodd" d="M0.0761719 0.839688C0.0761719 0.47518 0.371664 0.179688 0.736172 0.179688C1.10068 0.179688 1.39617 0.47518 1.39617 0.839688V2.22984C3.4198 0.158681 6.58716 -0.432742 9.26057 0.871166C12.6453 2.52199 14.0508 6.60408 12.4 9.98877C10.7492 13.3735 6.6671 14.779 3.28241 13.1282C1.93063 12.4689 0.848454 11.3965 0.178754 10.0618C0.0152861 9.73598 0.14688 9.33935 0.472678 9.17588C0.798476 9.01241 1.1951 9.14401 1.35857 9.46981C1.89873 10.5463 2.76999 11.4097 3.86106 11.9418C6.59051 13.273 9.88236 12.1396 11.2136 9.41012C12.5448 6.68066 11.4114 3.38882 8.68192 2.05757C6.2886 0.890277 3.43172 1.61375 1.87184 3.69969H4.25617C4.62068 3.69969 4.91617 3.99518 4.91617 4.35969C4.91617 4.7242 4.62068 5.01969 4.25617 5.01969H0.736172C0.371664 5.01969 0.0761719 4.7242 0.0761719 4.35969V4.31012C0.0760236 4.29955 0.0761719 0.839688 0.0761719 0.839688Z" fill="#f4a609"/>
</svg>
