<svg width="18" height="18" viewBox="0 0 18 18" fill="none" xmlns="http://www.w3.org/2000/svg">
<path fill-rule="evenodd" clip-rule="evenodd" d="M5.82381 2.75984L6.65114 1.10518C6.73245 0.942565 6.89865 0.839844 7.08046 0.839844H10.9205C11.1023 0.839844 11.2685 0.942565 11.3498 1.10518L12.1771 2.75984L15.3105 2.75984L16.6798 2.75984C16.9449 2.75984 17.1598 2.97475 17.1598 3.23984C17.1598 3.50494 16.9449 3.71984 16.6798 3.71984H15.2419L14.4411 14.9308C14.3514 16.1868 13.3064 17.1598 12.0472 17.1598H6.01445C4.75467 17.1598 3.7093 16.1858 3.62043 14.9291L2.82773 3.71984H1.31984C1.05475 3.71984 0.839844 3.50494 0.839844 3.23984C0.839844 2.97475 1.05475 2.75984 1.31984 2.75984L2.75984 2.75984L5.82381 2.75984ZM6.89712 2.75984H11.1038L10.6238 1.79984H7.37712L6.89712 2.75984ZM11.8815 7.04001L11.4015 12.8C11.3795 13.0642 11.5758 13.2962 11.84 13.3182C12.1042 13.3402 12.3362 13.1439 12.3582 12.8797L12.8382 7.11973C12.8602 6.85555 12.6639 6.62354 12.3997 6.60153C12.1356 6.57951 11.9035 6.77583 11.8815 7.04001ZM6.08001 6.60153C6.34419 6.57951 6.5762 6.77583 6.59821 7.04001L7.07821 12.8C7.10023 13.0642 6.90391 13.2962 6.63973 13.3182C6.37555 13.3402 6.14354 13.1439 6.12153 12.8797L5.64153 7.11973C5.61951 6.85555 5.81583 6.62354 6.08001 6.60153ZM8.51984 7.07984V12.8398C8.51984 13.1049 8.73475 13.3198 8.99984 13.3198C9.26494 13.3198 9.47984 13.1049 9.47984 12.8398V7.07984C9.47984 6.81475 9.26494 6.59984 8.99984 6.59984C8.73475 6.59984 8.51984 6.81475 8.51984 7.07984Z" fill="#919EAB"/>
</svg>
