<svg width="18" height="18" viewBox="0 0 18 18" fill="none" xmlns="http://www.w3.org/2000/svg">
<path fill-rule="evenodd" clip-rule="evenodd" d="M13.4857 3.5065C13.078 3.5065 12.7105 3.75209 12.5544 4.12875C12.3984 4.50542 12.4847 4.93897 12.7729 5.22726C13.0612 5.51555 13.4948 5.60179 13.8715 5.44577C14.2481 5.28975 14.4937 4.92219 14.4937 4.5145C14.4937 3.95779 14.0424 3.5065 13.4857 3.5065ZM17.3497 5.5393C17.3334 4.84235 17.2028 4.1528 16.9633 3.4981C16.7497 2.93793 16.4173 2.43069 15.9889 2.0113C15.5729 1.58074 15.0645 1.25041 14.5021 1.0453C13.8491 0.798473 13.1588 0.664954 12.4609 0.650498C11.5705 0.600098 11.2849 0.600098 9.0001 0.600098C6.7153 0.600098 6.4297 0.600098 5.5393 0.650498C4.84139 0.664954 4.15107 0.798473 3.4981 1.0453C2.93671 1.25248 2.42872 1.58253 2.0113 2.0113C1.58074 2.42725 1.25041 2.93567 1.0453 3.4981C0.798473 4.15107 0.664954 4.84139 0.650498 5.5393C0.600098 6.4297 0.600098 6.7153 0.600098 9.0001C0.600098 11.2849 0.600098 11.5705 0.650498 12.4609C0.664954 13.1588 0.798473 13.8491 1.0453 14.5021C1.25041 15.0645 1.58074 15.5729 2.0113 15.9889C2.42872 16.4177 2.93671 16.7477 3.4981 16.9549C4.15107 17.2017 4.84139 17.3352 5.5393 17.3497C6.4297 17.4001 6.7153 17.4001 9.0001 17.4001C11.2849 17.4001 11.5705 17.4001 12.4609 17.3497C13.1588 17.3352 13.8491 17.2017 14.5021 16.9549C15.0645 16.7498 15.5729 16.4195 15.9889 15.9889C16.4192 15.5711 16.7519 15.0634 16.9633 14.5021C17.2028 13.8474 17.3334 13.1578 17.3497 12.4609C17.3497 11.5705 17.4001 11.2849 17.4001 9.0001C17.4001 6.7153 17.4001 6.4297 17.3497 5.5393ZM15.8377 12.3601C15.8316 12.8933 15.735 13.4216 15.5521 13.9225C15.418 14.2881 15.2026 14.6184 14.9221 14.8885C14.6496 15.1661 14.32 15.3811 13.9561 15.5185C13.4552 15.7014 12.9269 15.798 12.3937 15.8041C11.5537 15.8461 11.2429 15.8545 9.0337 15.8545C6.82449 15.8545 6.51369 15.8545 5.67369 15.8041C5.12004 15.8145 4.56875 15.7292 4.04409 15.5521C3.69615 15.4077 3.38163 15.1932 3.12009 14.9221C2.84129 14.6522 2.62856 14.3217 2.49849 13.9561C2.29341 13.448 2.17967 12.9077 2.16249 12.3601C2.16249 11.5201 2.11209 11.2093 2.11209 9.0001C2.11209 6.7909 2.11209 6.4801 2.16249 5.6401C2.16626 5.09498 2.26577 4.55477 2.45649 4.0441C2.60437 3.68954 2.83136 3.37349 3.12009 3.1201C3.3753 2.83128 3.6907 2.6019 4.04409 2.4481C4.55612 2.26333 5.09577 2.16676 5.64009 2.1625C6.48009 2.1625 6.79089 2.1121 9.00009 2.1121C11.2093 2.1121 11.5201 2.1121 12.3601 2.1625C12.8933 2.16861 13.4216 2.26518 13.9225 2.4481C14.3042 2.58977 14.6468 2.82009 14.9221 3.1201C15.1974 3.37813 15.4125 3.69359 15.5521 4.0441C15.7388 4.5556 15.8354 5.09559 15.8377 5.6401C15.8797 6.4801 15.8881 6.7909 15.8881 9.0001C15.8881 11.2093 15.8797 11.5201 15.8377 12.3601ZM9.00009 4.6909C6.62129 4.69554 4.69621 6.62688 4.6993 9.00569C4.70239 11.3845 6.63248 13.3108 9.01129 13.3093C11.3901 13.3077 13.3177 11.3789 13.3177 9.0001C13.3199 7.85508 12.8655 6.75644 12.0551 5.94758C11.2446 5.13872 10.1451 4.68642 9.00009 4.6909ZM9.00009 11.7973C7.45524 11.7973 6.20289 10.5449 6.20289 9.0001C6.20289 7.45525 7.45524 6.2029 9.00009 6.2029C10.5449 6.2029 11.7973 7.45525 11.7973 9.0001C11.7973 9.74196 11.5026 10.4534 10.978 10.978C10.4534 11.5026 9.74195 11.7973 9.00009 11.7973Z" fill="#919EAB"/>
</svg>
