<svg width="18" height="14" viewBox="0 0 18 14" fill="none" xmlns="http://www.w3.org/2000/svg">
<path fill-rule="evenodd" clip-rule="evenodd" d="M17.4001 1.76448C16.7687 2.03985 16.101 2.22189 15.4177 2.30493C16.1386 1.872 16.6788 1.19092 16.9381 0.38804C16.2607 0.793427 15.5191 1.07905 14.7457 1.23248C13.6824 0.0733014 11.9743 -0.217208 10.5909 0.525845C9.20746 1.2689 8.49821 2.8578 8.8657 4.39071C6.09568 4.24986 3.5155 2.93299 1.7677 0.76804C1.46457 1.30018 1.30529 1.90282 1.3057 2.51604C1.30351 3.67269 1.87741 4.75364 2.8345 5.3956C2.2868 5.38061 1.7508 5.23287 1.2721 4.96493V5.00715C1.28056 6.65211 2.43922 8.06398 4.0441 8.38493C3.74443 8.47661 3.43331 8.52494 3.1201 8.52848C2.90329 8.52594 2.68701 8.50617 2.4733 8.46937C2.92772 9.87634 4.21929 10.8391 5.6905 10.8676C4.47855 11.8263 2.98224 12.3495 1.4401 12.3538C1.15932 12.3547 0.878756 12.3378 0.600098 12.3032C2.17462 13.3251 4.0095 13.8677 5.8837 13.8654C8.49632 13.8926 11.0102 12.8631 12.8601 11.0082C14.7099 9.1533 15.7405 6.62877 15.7201 4.00226C15.7201 3.85871 15.7201 3.70671 15.7201 3.55471C16.3792 3.06055 16.9477 2.45475 17.4001 1.76448Z" fill="#919EAB"/>
</svg>
