<svg width="34" height="33" viewBox="0 0 34 33" fill="none" xmlns="http://www.w3.org/2000/svg">
<path fill-rule="evenodd" clip-rule="evenodd" d="M5.79995 0.200195H28.1999C31.2927 0.200195 33.7999 2.7074 33.7999 5.80019V17.0002C33.7999 20.093 31.2927 22.6002 28.1999 22.6002H5.79995C2.70716 22.6002 0.199951 20.093 0.199951 17.0002V5.80019C0.199951 2.7074 2.70716 0.200195 5.79995 0.200195ZM33.7999 21.8002V21.0002C33.7999 21.0002 32.5911 23.9289 28.1999 24.2002H5.79995C1.31486 23.869 0.199951 21.0002 0.199951 21.0002V21.8002C0.199951 24.893 2.70716 27.4002 5.79995 27.4002H28.1999C31.2927 27.4002 33.7999 24.893 33.7999 21.8002ZM33.7999 26.6002V25.8002C33.7999 25.8002 32.5911 28.7289 28.1999 29.0002H5.79995C1.31486 28.669 0.199951 25.8002 0.199951 25.8002V26.6002C0.199951 29.693 2.70716 32.2002 5.79995 32.2002H28.1999C31.2927 32.2002 33.7999 29.693 33.7999 26.6002ZM20.2 6.6002H17.8V5.8002C17.8 5.35837 17.4418 5.0002 17 5.0002C16.5581 5.0002 16.2 5.35837 16.2 5.8002V6.6002H15.4223C14.0968 6.6002 13.0223 7.67471 13.0223 9.0002V9.80141C13.0223 11.1269 14.0968 12.2014 15.4223 12.2014H18.6C19.0418 12.2014 19.4 12.5596 19.4 13.0014V13.8002C19.4 14.242 19.0418 14.6002 18.6 14.6002H14.6196C14.5866 14.1999 14.2575 13.8797 13.8466 13.8672C13.405 13.8537 13.0361 14.2009 13.0226 14.6425L13.0003 15.3759C12.9866 15.827 13.3486 16.2002 13.8 16.2002H16.2V16.9862C16.2 17.428 16.5581 17.7862 17 17.7862C17.4418 17.7862 17.8 17.428 17.8 16.9862V16.2002H18.6C19.9254 16.2002 21 15.1257 21 13.8002V13.0014C21 11.6759 19.9254 10.6014 18.6 10.6014H15.4223C14.9804 10.6014 14.6223 10.2432 14.6223 9.80141V9.0002C14.6223 8.55837 14.9804 8.2002 15.4223 8.2002H19.4237C19.5105 8.54811 19.8252 8.80586 20.2 8.80586C20.6418 8.80586 21 8.44769 21 8.00586V7.4002C21 6.95837 20.6418 6.6002 20.2 6.6002Z" fill="#E73A5D"/>
</svg>
