<svg width="14" height="11" viewBox="0 0 14 11" fill="none" xmlns="http://www.w3.org/2000/svg">
<path fill-rule="evenodd" clip-rule="evenodd" d="M12.2001 4.59865L8.03588 0.960119C7.83625 0.785693 7.81582 0.482461 7.99025 0.282832C8.16468 0.0832033 8.46791 0.0627726 8.66754 0.237199L13.7875 4.71082C13.7889 4.71197 13.7902 4.71312 13.7915 4.71428C13.894 4.80231 13.959 4.9329 13.959 5.07865C13.959 5.25719 13.8615 5.41295 13.7169 5.49565L8.66805 9.91967C8.46866 10.0944 8.1654 10.0744 7.9907 9.875C7.81599 9.67561 7.83599 9.37235 8.03537 9.19765L12.1883 5.55865L0.841563 5.55865C0.576467 5.55865 0.361563 5.34375 0.361563 5.07865C0.361563 4.81356 0.576467 4.59865 0.841563 4.59865L12.2001 4.59865Z" fill="#919EAB"/>
</svg>
