<svg width="16" height="16" viewBox="0 0 16 16" fill="none" xmlns="http://www.w3.org/2000/svg">
<path d="M1.6 0.5H5.6C6.20626 0.5 6.7 0.993742 6.7 1.6V7.2C6.7 7.80626 6.20626 8.3 5.6 8.3H1.6C0.993743 8.3 0.5 7.80626 0.5 7.2V1.6C0.5 0.993742 0.993742 0.5 1.6 0.5ZM10.4 0.5H14.4C15.0063 0.5 15.5 0.993743 15.5 1.6V4C15.5 4.60626 15.0063 5.1 14.4 5.1H10.4C9.79374 5.1 9.3 4.60626 9.3 4V1.6C9.3 0.993742 9.79374 0.5 10.4 0.5ZM1.6 10.9H5.6C6.20626 10.9 6.7 11.3937 6.7 12V14.4C6.7 15.0063 6.20626 15.5 5.6 15.5H1.6C0.993743 15.5 0.5 15.0063 0.5 14.4V12C0.5 11.3937 0.993743 10.9 1.6 10.9ZM10.4 7.7H14.4C15.0063 7.7 15.5 8.19374 15.5 8.8V14.4C15.5 15.0063 15.0063 15.5 14.4 15.5H10.4C9.79374 15.5 9.3 15.0063 9.3 14.4V8.8C9.3 8.19374 9.79374 7.7 10.4 7.7Z" stroke="#b8bdc7"/>
</svg>
