<svg width="14" height="14" viewBox="0 0 14 14" fill="none" xmlns="http://www.w3.org/2000/svg">
<path fill-rule="evenodd" clip-rule="evenodd" d="M9.89447 3.18077V0.279785H5.07992C4.19627 0.279785 3.47992 0.99613 3.47992 1.87979V10.1998C3.47992 11.0834 4.19627 11.7998 5.07992 11.7998H11.4799C12.3636 11.7998 13.0799 11.0834 13.0799 10.1998V4.13028H10.869C10.3335 4.13028 9.89447 3.70802 9.89447 3.18077ZM10.7176 0.657684C10.6645 0.58802 10.6027 0.526774 10.5345 0.474984V3.18077C10.5345 3.34885 10.6815 3.49028 10.869 3.49028H12.8775L10.7176 0.657684ZM2.51992 13.7198H8.91992C9.69399 13.7198 10.3397 13.1701 10.4879 12.4398H5.07992C3.8428 12.4398 2.83992 11.4369 2.83992 10.1998V2.19979H2.51992C1.63627 2.19979 0.919922 2.91613 0.919922 3.79979V12.1198C0.919922 13.0034 1.63627 13.7198 2.51992 13.7198Z" fill="#C4CDD5"/>
</svg>
