<svg width="13" height="13" viewBox="0 0 13 13" fill="none" xmlns="http://www.w3.org/2000/svg">
<path fill-rule="evenodd" clip-rule="evenodd" d="M12.2316 0.858358C12.0207 0.647475 11.6788 0.647475 11.4679 0.858358L6.42793 5.89836C6.21704 6.10924 6.21704 6.45115 6.42793 6.66203C6.63881 6.87292 6.98072 6.87292 7.1916 6.66203L12.2316 1.62203C12.4425 1.41115 12.4425 1.06924 12.2316 0.858358ZM11.1298 3.67691C10.8315 3.67691 10.5898 3.91868 10.5898 4.21691V10.2066C10.5898 10.9188 9.98743 11.5002 9.23977 11.5002H2.93977C2.1921 11.5002 1.58977 10.9188 1.58977 10.2066V3.79378C1.58977 3.08163 2.1921 2.5002 2.93977 2.5002H8.80361C9.10184 2.5002 9.34361 2.25843 9.34361 1.9602C9.34361 1.66196 9.10184 1.4202 8.80361 1.4202H2.93977C1.59947 1.4202 0.509766 2.48097 0.509766 3.79378V10.2066C0.509766 11.5194 1.59947 12.5802 2.93977 12.5802H9.23977C10.5801 12.5802 11.6698 11.5194 11.6698 10.2066V4.21691C11.6698 3.91868 11.428 3.67691 11.1298 3.67691Z" fill="#919EAB"/>
</svg>
