<svg width="14" height="14" viewBox="0 0 14 14" fill="none" xmlns="http://www.w3.org/2000/svg">
<path fill-rule="evenodd" clip-rule="evenodd" d="M6.4 0.6C6.4 0.268629 6.66863 0 7 0C7.33137 0 7.6 0.268629 7.6 0.6V2.2C7.6 2.53137 7.33137 2.8 7 2.8C6.66863 2.8 6.4 2.53137 6.4 2.2V0.6ZM7 9.8C7.66274 9.8 8.2 9.26274 8.2 8.6C8.2 7.93726 7.66274 7.4 7 7.4C6.33726 7.4 5.8 7.93726 5.8 8.6C5.8 9.26274 6.33726 9.8 7 9.8ZM13.8243 0.975736C13.5899 0.741421 13.21 0.741421 12.9757 0.975736L11.3757 2.57574C11.1414 2.81005 11.1414 3.18995 11.3757 3.42426C11.61 3.65858 11.9899 3.65858 12.2243 3.42426L13.8243 1.82426C14.0586 1.58995 14.0586 1.21005 13.8243 0.975736ZM1.02426 0.975736L2.62426 2.57574C2.85858 2.81005 2.85858 3.18995 2.62426 3.42426C2.38995 3.65858 2.01005 3.65858 1.77574 3.42426L0.175736 1.82426C-0.0585786 1.58995 -0.0585786 1.21005 0.175736 0.975736C0.41005 0.741421 0.789949 0.741421 1.02426 0.975736ZM0.23047 8.44687C1.49865 5.38647 4.09412 3.4 7 3.4C9.90588 3.4 12.5013 5.38647 13.7695 8.44687C13.8102 8.54492 13.8102 8.65508 13.7695 8.75313C12.5013 11.8135 9.90588 13.8 7 13.8C4.09412 13.8 1.49865 11.8135 0.23047 8.75313C0.189843 8.65508 0.189843 8.54492 0.23047 8.44687ZM7 10.6C5.89543 10.6 5 9.70457 5 8.6C5 7.49543 5.89543 6.6 7 6.6C8.10457 6.6 9 7.49543 9 8.6C9 9.70457 8.10457 10.6 7 10.6Z" fill="#919EAB"/>
</svg>
