<svg width="23" height="22" viewBox="0 0 23 22" fill="none" xmlns="http://www.w3.org/2000/svg">
<path fill-rule="evenodd" clip-rule="evenodd" d="M8.63992 2.87057C8.63992 2.74906 8.73842 2.65057 8.85992 2.65057H14.1399C14.5044 2.65057 14.7999 2.35507 14.7999 1.99057C14.7999 1.62606 14.5044 1.33057 14.1399 1.33057H8.39209C7.93505 1.33057 7.50162 1.53357 7.20903 1.88468L3.27686 6.60329C3.04623 6.88005 2.91992 7.22891 2.91992 7.58917V16.9506C2.91992 18.7731 4.39738 20.2506 6.21992 20.2506H16.7799C18.6025 20.2506 20.0799 18.7731 20.0799 16.9506C20.0799 16.5861 19.7844 16.2906 19.4199 16.2906C19.0554 16.2906 18.7599 16.5861 18.7599 16.9506C18.7599 18.0441 17.8734 18.9306 16.7799 18.9306H6.21992C5.1264 18.9306 4.23992 18.0441 4.23992 16.9506V8.15057C4.23992 8.02906 4.33842 7.93057 4.45992 7.93057H7.09992C7.95044 7.93057 8.63992 7.24109 8.63992 6.39057V2.87057ZM4.98905 6.61057L7.31992 3.81352V6.39057C7.31992 6.51207 7.22142 6.61057 7.09992 6.61057H4.98905ZM17.2199 4.39988H21.6199V2.76467C21.6199 2.20592 21.1566 1.75988 20.5933 1.75988H18.2466C17.6832 1.75988 17.2199 2.20592 17.2199 2.76467V4.39988ZM21.6199 10.1109V5.27988H17.2199V10.1109C17.2199 10.2272 17.266 10.3388 17.348 10.4212L19.108 12.1902C19.28 12.3631 19.5598 12.3631 19.7318 12.1902L21.4918 10.4212C21.5739 10.3388 21.6199 10.2272 21.6199 10.1109ZM9.73992 10.7799C9.37541 10.7799 9.07992 10.4844 9.07992 10.1199C9.07992 9.75537 9.37541 9.45988 9.73992 9.45988H14.1399C14.5044 9.45988 14.7999 9.75537 14.7999 10.1199C14.7999 10.4844 14.5044 10.7799 14.1399 10.7799H9.73992ZM9.73992 15.1799C9.37541 15.1799 9.07992 14.8844 9.07992 14.5199C9.07992 14.1554 9.37541 13.8599 9.73992 13.8599H14.1399C14.5044 13.8599 14.7999 14.1554 14.7999 14.5199C14.7999 14.8844 14.5044 15.1799 14.1399 15.1799H9.73992Z" fill="white"/>
</svg>
