<svg width="16" height="16" viewBox="0 0 16 16" fill="none" xmlns="http://www.w3.org/2000/svg">
<path fill-rule="evenodd" clip-rule="evenodd" d="M10.5204 12.7435V15.1152C10.5204 15.2712 10.4937 15.4208 10.4445 15.5599H11.5581C12.7861 15.5599 13.7816 14.5644 13.7816 13.3364V6.53409L14.8229 7.4452C15.0077 7.60694 15.2887 7.58821 15.4504 7.40337C15.6121 7.21853 15.5934 6.93759 15.4086 6.77585L8.29327 0.549972C8.1256 0.403265 7.87525 0.403265 7.70759 0.549972L0.592301 6.77585C0.407465 6.93759 0.388735 7.21853 0.550466 7.40337C0.712198 7.58821 0.993146 7.60694 1.17798 7.4452L2.21926 6.53409V13.3364C2.21926 14.5644 3.21476 15.5599 4.44279 15.5599H5.55634C5.50718 15.4208 5.48043 15.2712 5.48043 15.1152V12.7435C5.48043 11.5154 6.603 10.5199 7.83102 10.5199H8.16984C9.39786 10.5199 10.5204 11.5154 10.5204 12.7435ZM6.20043 12.7519C6.20043 11.9169 6.87738 11.2399 7.71243 11.2399H8.28843C9.12348 11.2399 9.80043 11.9169 9.80043 12.7519V15.0559C9.80043 15.3343 9.57478 15.5599 9.29643 15.5599H6.70443C6.42608 15.5599 6.20043 15.3343 6.20043 15.0559V12.7519Z" fill="#E73A5D"/>
</svg>
