<svg width="81" height="54" viewBox="0 0 81 54" fill="none" xmlns="http://www.w3.org/2000/svg">
<g clip-path="url(#clip0_48_23042)">
<path d="M34.4494 21.4208C35.5764 21.429 36.6838 21.7166 37.673 22.2579C38.9398 22.9779 39.9171 24.1173 40.4373 25.4807C41.0726 27.0734 41.8004 28.6274 42.617 30.1348C43.3515 31.5346 44.189 32.8776 45.1224 34.1528C46.465 35.894 48.374 37.1084 50.5174 37.5848C51.1677 37.7309 51.8258 37.8399 52.4884 37.9113C53.1965 37.9824 53.9099 37.9824 54.618 37.9113C55.9513 37.7947 57.2676 37.5308 58.5431 37.1244C61.2305 36.2552 63.783 35.0126 66.1262 33.4329C68.8459 31.6077 71.4432 29.6056 73.9013 27.4394C74.3524 27.034 74.8814 26.7254 75.4559 26.5325C76.0304 26.3396 76.6381 26.2665 77.2418 26.3177C78.1412 26.3843 78.9927 26.7498 79.6613 27.3563C80.33 27.9629 80.7776 28.7757 80.9332 29.6661C81.0784 30.3436 81.0626 31.046 80.887 31.7163C80.7115 32.3866 80.3811 33.0062 79.9226 33.525C78.411 35.3414 76.866 37.1161 75.2291 38.8321C72.1745 42.144 68.7502 45.0932 65.0238 47.6214C61.1774 50.1724 56.9277 52.0517 52.455 53.1796C51.3545 53.4494 50.239 53.6535 49.1144 53.7907C47.9615 53.9274 46.801 53.9889 45.6402 53.9749C44.822 53.9551 44.0053 53.8937 43.1933 53.7907C40.5852 53.4961 38.0447 52.7661 35.677 51.631C33.1486 50.4433 30.8189 48.8705 28.7705 46.9685C24.9571 43.3366 22.0134 38.8865 20.1602 33.9519C19.9029 33.3014 19.8124 32.5966 19.897 31.902C19.9816 31.2074 20.2386 30.5451 20.6446 29.9758C22.0428 27.8899 23.7886 26.0607 25.8057 24.5682C27.7787 23.1194 30.0314 22.0988 32.42 21.5715C33.0893 21.4499 33.7695 21.3994 34.4494 21.4208Z" fill="#F4A607"/>
<path d="M0.0251471 18.7006C0.0247485 17.9637 0.208516 17.2385 0.559648 16.5912C1.95592 13.9793 3.676 11.5549 5.67902 9.37555C7.98091 6.82492 10.7009 4.68747 13.7214 3.05558C16.0754 1.78626 18.6106 0.888409 21.2376 0.393677C22.2828 0.198073 23.3405 0.07779 24.4028 0.0337385C25.1461 0.0337385 25.8893 -0.00811549 26.6326 0.0337385C27.9264 0.0753562 29.2143 0.226551 30.4826 0.485743C34.7136 1.42346 38.729 3.15608 42.3165 5.59193C45.1584 7.45037 47.7711 9.6392 50.1 12.1128C52.4192 14.5914 54.5598 17.232 56.5055 20.0148C57.6747 21.689 58.7771 23.3631 59.8461 25.0373C60.1589 25.5441 60.3672 26.1085 60.4588 26.6973C60.5504 27.2861 60.5234 27.8873 60.3794 28.4654C60.2354 29.0436 59.9773 29.587 59.6203 30.0636C59.2634 30.5401 58.8148 30.9401 58.3011 31.2401C57.5586 31.6209 56.7214 31.7762 55.8921 31.687C55.0628 31.5978 54.2776 31.2679 53.6326 30.7378C53.1098 30.2627 52.6214 29.7507 52.1711 29.206C49.6475 26.329 46.8505 23.7049 43.8198 21.3709C41.7441 19.8009 39.4325 18.5718 36.9716 17.7296C35.9252 17.375 34.8401 17.1474 33.7397 17.0516C33.2479 17.0125 32.7546 16.9986 32.2615 17.0097C30.4605 17.0241 28.6939 17.5057 27.1337 18.4076C26.1701 19.0169 25.3078 19.7739 24.5782 20.651C22.7153 22.7736 21.0909 25.0951 19.7344 27.5736C19.1283 28.7464 18.1898 29.7133 17.0369 30.3528C15.9372 30.9157 14.7004 31.1538 13.4709 31.0391C11.4278 30.8065 9.47243 30.0765 7.77522 28.913C5.09532 27.198 2.87358 24.8533 1.30291 22.0824C0.897876 21.4658 0.556494 20.8095 0.284038 20.1236C0.117452 19.6676 0.0298945 19.1863 0.0251471 18.7006Z" fill="#E73A5D"/>
</g>
<defs>
<clipPath id="clip0_48_23042">
<rect width="81" height="54" fill="white"/>
</clipPath>
</defs>
</svg>
