<svg width="18" height="18" viewBox="0 0 18 18" fill="none" xmlns="http://www.w3.org/2000/svg">
<path fill-rule="evenodd" clip-rule="evenodd" d="M0.600098 9.0001C0.600098 13.6393 4.36091 17.4001 9.0001 17.4001C13.6393 17.4001 17.4001 13.6393 17.4001 9.0001C17.4001 4.36091 13.6393 0.600098 9.0001 0.600098C4.36091 0.600098 0.600098 4.36091 0.600098 9.0001ZM7.41683 5.4001H8.6001V4.2001C8.6001 3.97918 8.77918 3.8001 9.0001 3.8001C9.22101 3.8001 9.4001 3.97918 9.4001 4.2001V5.4001H11.4001C11.621 5.4001 11.8001 5.57918 11.8001 5.8001C11.8001 6.02101 11.621 6.2001 11.4001 6.2001H7.41683C7.19591 6.2001 7.01683 6.37918 7.01683 6.6001V8.20087C7.01683 8.42178 7.19591 8.60087 7.41683 8.60087H10.6001C11.2628 8.60087 11.8001 9.13812 11.8001 9.80087V11.4016C11.8001 12.0644 11.2628 12.6016 10.6001 12.6016H9.4001V13.8001C9.4001 14.021 9.22101 14.2001 9.0001 14.2001C8.77918 14.2001 8.6001 14.021 8.6001 13.8001V12.6016H6.6001C6.37918 12.6016 6.2001 12.4225 6.2001 12.2016C6.2001 11.9807 6.37918 11.8016 6.6001 11.8016H8.96478C8.97641 11.8006 8.9882 11.8001 9.0001 11.8001C9.012 11.8001 9.02378 11.8006 9.03542 11.8016H10.6001C10.821 11.8016 11.0001 11.6225 11.0001 11.4016V9.80087C11.0001 9.57995 10.821 9.40087 10.6001 9.40087H7.41683C6.75408 9.40087 6.21683 8.86361 6.21683 8.20087V6.6001C6.21683 5.93736 6.75408 5.4001 7.41683 5.4001Z" fill="#637381"/>
</svg>
