<svg width="14" height="14" viewBox="0 0 14 14" fill="none" xmlns="http://www.w3.org/2000/svg">
<path fill-rule="evenodd" clip-rule="evenodd" d="M5.032 6.4098L7.26481 8.76013C7.50688 9.01494 7.9453 9.05132 8.43373 8.81121C9.67674 8.29714 10.0903 8.17181 10.3264 8.42034L12.893 11.1221C13.1964 11.4414 13.1155 11.9734 12.7762 12.3305C11.0145 14.1849 8.15116 14.1849 6.38949 12.3305L1.59491 7.28357C-0.157938 5.43847 -0.157938 2.45343 1.59491 0.608333C1.94134 0.243671 2.47334 0.153947 2.78817 0.48534L5.3548 3.18705C5.57726 3.42123 5.45798 3.85739 4.97227 5.15694C4.74648 5.66422 4.78266 6.14734 5.032 6.4098Z" fill="#C4CDD5"/>
</svg>
