<svg width="14" height="15" viewBox="0 0 14 15" fill="none" xmlns="http://www.w3.org/2000/svg">
<path fill-rule="evenodd" clip-rule="evenodd" d="M13.0197 2.3999C13.0197 1.29533 12.1243 0.399902 11.0197 0.399902C9.91516 0.399902 9.01973 1.29533 9.01973 2.3999C9.01973 3.50447 9.91516 4.3999 11.0197 4.3999C12.1243 4.3999 13.0197 3.50447 13.0197 2.3999ZM13.0197 12.7999C13.0197 11.6953 12.1243 10.7999 11.0197 10.7999C9.91516 10.7999 9.01973 11.6953 9.01973 12.7999C9.01973 13.9045 9.91516 14.7999 11.0197 14.7999C12.1243 14.7999 13.0197 13.9045 13.0197 12.7999ZM2.21973 5.9999C3.3243 5.9999 4.21973 6.89533 4.21973 7.9999C4.21973 9.10447 3.3243 9.9999 2.21973 9.9999C1.11516 9.9999 0.219727 9.10447 0.219727 7.9999C0.219727 6.89533 1.11516 5.9999 2.21973 5.9999ZM8.36206 3.28369C8.44745 3.54061 8.56906 3.78099 8.72083 3.9988L4.31749 6.1453C4.12277 5.92521 3.89394 5.73599 3.63929 5.58592L8.36206 3.28369ZM8.38757 11.8428C8.29454 12.0986 8.23774 12.3717 8.22335 12.6561L3.7047 10.3741C3.95075 10.2199 4.17111 10.0285 4.35792 9.80779L8.38757 11.8428Z" fill="#919EAB"/>
</svg>
