<svg width="19" height="14" viewBox="0 0 19 14" fill="none" xmlns="http://www.w3.org/2000/svg">
<rect width="19" height="14" rx="2" fill="white"/>
<mask id="mask0_365_19544" style="mask-type:alpha" maskUnits="userSpaceOnUse" x="0" y="0" width="19" height="14">
<rect width="19" height="14" rx="2" fill="white"/>
</mask>
<g mask="url(#mask0_365_19544)">
<path fill-rule="evenodd" clip-rule="evenodd" d="M19 0H0V0.933333H19V0ZM19 1.86667H0V2.8H19V1.86667ZM0 3.73333H19V4.66667H0V3.73333ZM19 5.6H0V6.53333H19V5.6ZM0 7.46667H19V8.4H0V7.46667ZM19 9.33333H0V10.2667H19V9.33333ZM0 11.2H19V12.1333H0V11.2ZM19 13.0667H0V14H19V13.0667Z" fill="#D02F44"/>
<rect width="8.14286" height="6.53333" fill="#46467F"/>
<g filter="url(#filter0_d_365_19544)">
<path fill-rule="evenodd" clip-rule="evenodd" d="M1.35717 1.86644C1.60701 1.86644 1.80955 1.65751 1.80955 1.39977C1.80955 1.14204 1.60701 0.933105 1.35717 0.933105C1.10732 0.933105 0.904785 1.14204 0.904785 1.39977C0.904785 1.65751 1.10732 1.86644 1.35717 1.86644ZM3.16666 1.86644C3.41651 1.86644 3.61904 1.65751 3.61904 1.39977C3.61904 1.14204 3.41651 0.933105 3.16666 0.933105C2.91682 0.933105 2.71428 1.14204 2.71428 1.39977C2.71428 1.65751 2.91682 1.86644 3.16666 1.86644ZM5.42862 1.39977C5.42862 1.65751 5.22608 1.86644 4.97624 1.86644C4.7264 1.86644 4.52386 1.65751 4.52386 1.39977C4.52386 1.14204 4.7264 0.933105 4.97624 0.933105C5.22608 0.933105 5.42862 1.14204 5.42862 1.39977ZM6.78574 1.86644C7.03558 1.86644 7.23812 1.65751 7.23812 1.39977C7.23812 1.14204 7.03558 0.933105 6.78574 0.933105C6.53589 0.933105 6.33336 1.14204 6.33336 1.39977C6.33336 1.65751 6.53589 1.86644 6.78574 1.86644ZM2.71434 2.33311C2.71434 2.59084 2.5118 2.79977 2.26195 2.79977C2.01211 2.79977 1.80957 2.59084 1.80957 2.33311C1.80957 2.07537 2.01211 1.86644 2.26195 1.86644C2.5118 1.86644 2.71434 2.07537 2.71434 2.33311ZM4.07145 2.79977C4.32129 2.79977 4.52383 2.59084 4.52383 2.33311C4.52383 2.07537 4.32129 1.86644 4.07145 1.86644C3.82161 1.86644 3.61907 2.07537 3.61907 2.33311C3.61907 2.59084 3.82161 2.79977 4.07145 2.79977ZM6.33333 2.33311C6.33333 2.59084 6.13079 2.79977 5.88095 2.79977C5.63111 2.79977 5.42857 2.59084 5.42857 2.33311C5.42857 2.07537 5.63111 1.86644 5.88095 1.86644C6.13079 1.86644 6.33333 2.07537 6.33333 2.33311ZM6.78574 3.73311C7.03558 3.73311 7.23812 3.52417 7.23812 3.26644C7.23812 3.00871 7.03558 2.79977 6.78574 2.79977C6.53589 2.79977 6.33336 3.00871 6.33336 3.26644C6.33336 3.52417 6.53589 3.73311 6.78574 3.73311ZM5.42862 3.26644C5.42862 3.52417 5.22608 3.73311 4.97624 3.73311C4.7264 3.73311 4.52386 3.52417 4.52386 3.26644C4.52386 3.00871 4.7264 2.79977 4.97624 2.79977C5.22608 2.79977 5.42862 3.00871 5.42862 3.26644ZM3.16666 3.73311C3.41651 3.73311 3.61904 3.52417 3.61904 3.26644C3.61904 3.00871 3.41651 2.79977 3.16666 2.79977C2.91682 2.79977 2.71428 3.00871 2.71428 3.26644C2.71428 3.52417 2.91682 3.73311 3.16666 3.73311ZM1.80955 3.26644C1.80955 3.52417 1.60701 3.73311 1.35717 3.73311C1.10732 3.73311 0.904785 3.52417 0.904785 3.26644C0.904785 3.00871 1.10732 2.79977 1.35717 2.79977C1.60701 2.79977 1.80955 3.00871 1.80955 3.26644ZM2.26195 4.66644C2.5118 4.66644 2.71434 4.4575 2.71434 4.19977C2.71434 3.94204 2.5118 3.73311 2.26195 3.73311C2.01211 3.73311 1.80957 3.94204 1.80957 4.19977C1.80957 4.4575 2.01211 4.66644 2.26195 4.66644ZM4.52383 4.19977C4.52383 4.4575 4.32129 4.66644 4.07145 4.66644C3.82161 4.66644 3.61907 4.4575 3.61907 4.19977C3.61907 3.94204 3.82161 3.73311 4.07145 3.73311C4.32129 3.73311 4.52383 3.94204 4.52383 4.19977ZM5.88095 4.66644C6.13079 4.66644 6.33333 4.4575 6.33333 4.19977C6.33333 3.94204 6.13079 3.73311 5.88095 3.73311C5.63111 3.73311 5.42857 3.94204 5.42857 4.19977C5.42857 4.4575 5.63111 4.66644 5.88095 4.66644ZM7.23812 5.13311C7.23812 5.39084 7.03558 5.59977 6.78574 5.59977C6.53589 5.59977 6.33336 5.39084 6.33336 5.13311C6.33336 4.87537 6.53589 4.66644 6.78574 4.66644C7.03558 4.66644 7.23812 4.87537 7.23812 5.13311ZM4.97624 5.59977C5.22608 5.59977 5.42862 5.39084 5.42862 5.13311C5.42862 4.87537 5.22608 4.66644 4.97624 4.66644C4.7264 4.66644 4.52386 4.87537 4.52386 5.13311C4.52386 5.39084 4.7264 5.59977 4.97624 5.59977ZM3.61904 5.13311C3.61904 5.39084 3.41651 5.59977 3.16666 5.59977C2.91682 5.59977 2.71428 5.39084 2.71428 5.13311C2.71428 4.87537 2.91682 4.66644 3.16666 4.66644C3.41651 4.66644 3.61904 4.87537 3.61904 5.13311ZM1.35717 5.59977C1.60701 5.59977 1.80955 5.39084 1.80955 5.13311C1.80955 4.87537 1.60701 4.66644 1.35717 4.66644C1.10732 4.66644 0.904785 4.87537 0.904785 5.13311C0.904785 5.39084 1.10732 5.59977 1.35717 5.59977Z" fill="url(#paint0_linear_365_19544)"/>
</g>
</g>
<defs>
<filter id="filter0_d_365_19544" x="0.904785" y="0.933105" width="6.3335" height="5.6665" filterUnits="userSpaceOnUse" color-interpolation-filters="sRGB">
<feFlood flood-opacity="0" result="BackgroundImageFix"/>
<feColorMatrix in="SourceAlpha" type="matrix" values="0 0 0 0 0 0 0 0 0 0 0 0 0 0 0 0 0 0 127 0" result="hardAlpha"/>
<feOffset dy="1"/>
<feColorMatrix type="matrix" values="0 0 0 0 0 0 0 0 0 0 0 0 0 0 0 0 0 0 0.06 0"/>
<feBlend mode="normal" in2="BackgroundImageFix" result="effect1_dropShadow_365_19544"/>
<feBlend mode="normal" in="SourceGraphic" in2="effect1_dropShadow_365_19544" result="shape"/>
</filter>
<linearGradient id="paint0_linear_365_19544" x1="0.904785" y1="0.933105" x2="0.904785" y2="5.59977" gradientUnits="userSpaceOnUse">
<stop stop-color="white"/>
<stop offset="1" stop-color="#F0F0F0"/>
</linearGradient>
</defs>
</svg>
