<svg width="18" height="18" viewBox="0 0 18 18" fill="none" xmlns="http://www.w3.org/2000/svg">
<path fill-rule="evenodd" clip-rule="evenodd" d="M16.4761 0.600098H1.5241C1.01379 0.600098 0.600098 1.01379 0.600098 1.5241V16.4761C0.600098 16.7212 0.697447 16.9562 0.870731 17.1295C1.04401 17.3027 1.27904 17.4001 1.5241 17.4001H9.5713V10.8901H7.3873V8.3701H9.5713V6.4801C9.47972 5.5819 9.78979 4.68915 10.4184 4.04108C11.047 3.39302 11.9299 3.05591 12.8305 3.1201C13.4843 3.11607 14.1378 3.14973 14.7877 3.2209V5.4889H13.4521C12.3937 5.4889 12.1921 5.9929 12.1921 6.7237V8.3449H14.7121L14.3845 10.8649H12.1921V17.4001H16.4761C16.7212 17.4001 16.9562 17.3027 17.1295 17.1295C17.3027 16.9562 17.4001 16.7212 17.4001 16.4761V1.5241C17.4001 1.27904 17.3027 1.04401 17.1295 0.870731C16.9562 0.697447 16.7212 0.600098 16.4761 0.600098Z" fill="#919EAB"/>
</svg>
