<svg width="18" height="12" viewBox="0 0 18 12" fill="none" xmlns="http://www.w3.org/2000/svg">
<path fill-rule="evenodd" clip-rule="evenodd" d="M17.3962 4.22918C17.434 3.1188 17.1951 2.01673 16.7018 1.0253C16.367 0.618496 15.9025 0.343965 15.3891 0.249548C13.2657 0.053689 11.1334 -0.0265871 9.00153 0.00906339C6.8774 -0.0282052 4.75282 0.0494803 2.63682 0.24179C2.21847 0.319146 1.83132 0.518613 1.52261 0.81585C0.835772 1.45973 0.759456 2.5613 0.683141 3.49221C0.572417 5.16595 0.572417 6.84537 0.683141 8.51911C0.705219 9.04306 0.781965 9.56314 0.912087 10.0706C1.0041 10.4624 1.19027 10.8249 1.45393 11.1256C1.76474 11.4386 2.1609 11.6494 2.59103 11.7307C4.23633 11.9372 5.89413 12.0227 7.55153 11.9867C10.2226 12.0255 12.5655 11.9867 15.3357 11.7695C15.7764 11.6932 16.1837 11.4821 16.5033 11.1644C16.717 10.9472 16.8766 10.6812 16.9689 10.3887C17.2418 9.53738 17.3758 8.64642 17.3657 7.75111C17.3962 7.31669 17.3962 4.69463 17.3962 4.22918ZM7.27681 8.21656V3.41463L11.7947 5.82723C10.5278 6.54093 8.85654 7.34772 7.27681 8.21656Z" fill="#919EAB"/>
</svg>
