<svg width="28" height="22" viewBox="0 0 28 22" fill="none" xmlns="http://www.w3.org/2000/svg">
<path fill-rule="evenodd" clip-rule="evenodd" d="M0.560547 11.6401H14.6405V3.32012C14.6405 2.07692 15.3495 0.9993 16.3851 0.469481C16.0727 0.249378 15.6917 0.120117 15.2805 0.120117H2.48055C1.42016 0.120117 0.560547 0.97973 0.560547 2.04012V11.6401ZM27.4405 14.8401C27.4405 14.3483 27.2556 13.8997 26.9516 13.56C27.2556 13.2203 27.4405 12.7717 27.4405 12.2799V10.3601H22.9605C21.9002 10.3601 21.0405 9.50051 21.0405 8.44012V5.88012C21.0405 4.81973 21.9002 3.96012 22.9605 3.96012H26.3804L26.3478 3.82729C26.1612 3.06813 25.533 2.49788 24.7594 2.38545L18.1167 1.42008C18.0252 1.40679 17.933 1.40012 17.8405 1.40012C16.7802 1.40012 15.9205 2.25973 15.9205 3.32012V12.2799C15.9205 12.5044 15.9591 12.7199 16.0299 12.9201H2.48055C1.42016 12.9201 0.560547 13.7797 0.560547 14.8401V16.1201C0.560547 17.1805 1.42016 18.0401 2.48055 18.0401H3.16592C3.47646 15.8691 5.34361 14.2001 7.60055 14.2001C9.85749 14.2001 11.7246 15.8691 12.0352 18.0401H17.2459C17.5565 15.8691 19.4236 14.2001 21.6805 14.2001C23.9064 14.2001 25.7531 15.8234 26.1015 17.9507C26.8779 17.7045 27.4405 16.978 27.4405 16.1201V14.8401ZM27.3851 8.04811L26.695 5.24012H22.9605C22.6071 5.24012 22.3205 5.52665 22.3205 5.88012V8.44012C22.3205 8.79358 22.6071 9.08012 22.9605 9.08012H27.4405V8.50631C27.4405 8.3519 27.4219 8.19806 27.3851 8.04811ZM10.8005 18.6801C10.8005 20.4474 9.36786 21.8801 7.60055 21.8801C5.83324 21.8801 4.40055 20.4474 4.40055 18.6801C4.40055 16.9128 5.83324 15.4801 7.60055 15.4801C9.36786 15.4801 10.8005 16.9128 10.8005 18.6801ZM24.8805 18.6801C24.8805 20.4474 23.4479 21.8801 21.6805 21.8801C19.9132 21.8801 18.4805 20.4474 18.4805 18.6801C18.4805 16.9128 19.9132 15.4801 21.6805 15.4801C23.4479 15.4801 24.8805 16.9128 24.8805 18.6801Z" fill="white"/>
</svg>
