<svg width="24" height="26" viewBox="0 0 24 26" fill="none" xmlns="http://www.w3.org/2000/svg">
<path fill-rule="evenodd" clip-rule="evenodd" d="M7.82502 4.74996V9.73116C7.82502 10.247 7.39372 10.6651 6.86169 10.6651C6.32965 10.6651 5.89835 10.247 5.89835 9.73116V4.74996C5.89835 2.17085 8.05485 0.0800781 10.715 0.0800781H13.2839C15.9441 0.0800781 18.1006 2.17085 18.1006 4.74996V9.73116C18.1006 10.247 17.6693 10.6651 17.1372 10.6651C16.6052 10.6651 16.1739 10.247 16.1739 9.73116V4.74996C16.1739 3.2025 14.88 1.94803 13.2839 1.94803H10.715C9.11892 1.94803 7.82502 3.2025 7.82502 4.74996ZM4.6139 9.73116V4.74996H3.1087C2.78844 4.74996 2.5183 4.98379 2.47857 5.29538L0.642995 19.6936H23.3554L21.5199 5.29538C21.4801 4.98379 21.21 4.74996 20.8897 4.74996H19.385V9.73116C19.385 10.9347 18.3786 11.9104 17.1372 11.9104C15.8958 11.9104 14.8895 10.9347 14.8895 9.73116V4.74996H9.10945V9.73116C9.10945 10.9347 8.10309 11.9104 6.86167 11.9104C5.62026 11.9104 4.6139 10.9347 4.6139 9.73116ZM23.5142 20.9389H0.484239L0.47378 21.0209C0.450918 21.2002 0.439453 21.3808 0.439453 21.5615C0.439453 23.9687 2.42966 25.9201 4.88471 25.9201H19.1137C19.298 25.9201 19.4822 25.9088 19.6651 25.8864C22.1012 25.5878 23.8292 23.4095 23.5247 21.0209L23.5142 20.9389Z" fill="#5C6AC4"/>
</svg>
