<svg width="25" height="25" viewBox="0 0 25 25" fill="none" xmlns="http://www.w3.org/2000/svg">
<path fill-rule="evenodd" clip-rule="evenodd" d="M0.333984 6.75016C0.333984 7.51212 0.820956 8.16035 1.50065 8.40059H23.6673C24.347 8.16035 24.834 7.51212 24.834 6.75016V2.0835C24.834 1.117 24.0505 0.333496 23.084 0.333496H2.08398C1.11749 0.333496 0.333984 1.117 0.333984 2.0835V6.75016ZM23.6673 9.56725H1.50065V20.7502C1.50065 23.0053 3.32882 24.8335 5.58399 24.8335H19.584C21.8392 24.8335 23.6673 23.0053 23.6673 20.7502V9.56725ZM9.08399 12.0002H16.084C16.4062 12.0002 16.6673 12.2613 16.6673 12.5835C16.6673 12.9057 16.4062 13.1668 16.084 13.1668H9.08399C8.76182 13.1668 8.50065 12.9057 8.50065 12.5835C8.50065 12.2613 8.76182 12.0002 9.08399 12.0002Z" fill="#919EAB"/>
</svg>
