<svg width="34" height="28" viewBox="0 0 34 28" fill="none" xmlns="http://www.w3.org/2000/svg">
<path fill-rule="evenodd" clip-rule="evenodd" d="M0.199951 14.7999H17.8V4.3999C17.8 2.8459 18.6861 1.49888 19.9807 0.836607C19.5902 0.561478 19.1139 0.399902 18.6 0.399902H2.59995C1.27447 0.399902 0.199951 1.47442 0.199951 2.7999V14.7999ZM33.7999 18.7999C33.7999 18.1852 33.5688 17.6244 33.1887 17.1998C33.5688 16.7751 33.7999 16.2144 33.7999 15.5996V13.1999H28.1999C26.8745 13.1999 25.7999 12.1254 25.7999 10.7999V7.5999C25.7999 6.27442 26.8745 5.1999 28.1999 5.1999H32.4748L32.434 5.03386C32.2008 4.08491 31.4156 3.37211 30.4485 3.23157L22.1451 2.02485C22.0308 2.00824 21.9155 1.9999 21.7999 1.9999C20.4745 1.9999 19.4 3.07442 19.4 4.3999V15.5996C19.4 15.8802 19.4481 16.1496 19.5366 16.3999H2.59995C1.27447 16.3999 0.199951 17.4744 0.199951 18.7999V20.3999C0.199951 21.7254 1.27447 22.7999 2.59995 22.7999H3.45666C3.84485 20.0861 6.17877 17.9999 8.99995 17.9999C11.8211 17.9999 14.1551 20.0861 14.5432 22.7999H21.0567C21.4448 20.0861 23.7788 17.9999 26.5999 17.9999C29.3823 17.9999 31.6906 20.029 32.1261 22.6881C33.0966 22.3804 33.7999 21.4723 33.7999 20.3999V18.7999ZM33.7306 10.3099L32.868 6.7999H28.2C27.7581 6.7999 27.4 7.15807 27.4 7.5999V10.7999C27.4 11.2417 27.7581 11.5999 28.2 11.5999H33.7999V10.8826C33.7999 10.6896 33.7767 10.4973 33.7306 10.3099ZM13 23.5999C13 25.809 11.2091 27.5999 8.99995 27.5999C6.79081 27.5999 4.99995 25.809 4.99995 23.5999C4.99995 21.3908 6.79081 19.5999 8.99995 19.5999C11.2091 19.5999 13 21.3908 13 23.5999ZM30.5999 23.5999C30.5999 25.809 28.8091 27.5999 26.5999 27.5999C24.3908 27.5999 22.5999 25.809 22.5999 23.5999C22.5999 21.3908 24.3908 19.5999 26.5999 19.5999C28.8091 19.5999 30.5999 21.3908 30.5999 23.5999Z" fill="#E73A5D"/>
</svg>
