<svg width="34" height="34" viewBox="0 0 34 34" fill="none" xmlns="http://www.w3.org/2000/svg">
<path fill-rule="evenodd" clip-rule="evenodd" d="M33.8002 22.0742C33.151 21.272 32.333 20.6121 31.4002 20.1485V17.0001C31.4002 8.82628 25.174 2.64854 17.0002 2.64854C8.82638 2.64854 2.6002 8.82628 2.6002 17.0001V20.1485C1.66737 20.6121 0.849342 21.272 0.200195 22.0742V17.0001C0.200195 7.5008 7.5009 0.248535 17.0002 0.248535C26.4995 0.248535 33.8002 7.5008 33.8002 17.0001V22.0742ZM5.07095 21.0472C5.02451 21.291 5.0002 21.5427 5.0002 21.8001V31.4001C5.0002 31.6575 5.02451 31.9092 5.07095 32.1531C2.32271 31.7957 0.200195 29.4458 0.200195 26.6001C0.200195 23.7545 2.32271 21.4045 5.07095 21.0472ZM29.0002 31.4001C29.0002 31.6575 28.9759 31.9092 28.9294 32.1531C31.6777 31.7957 33.8002 29.4458 33.8002 26.6001C33.8002 23.7545 31.6777 21.4045 28.9294 21.0472C28.9759 21.291 29.0002 21.5427 29.0002 21.8001V31.4001ZM9.00019 19.4001H10.6002C11.9257 19.4001 13.0002 20.4746 13.0002 21.8001V31.4001C13.0002 32.7256 11.9257 33.8001 10.6002 33.8001H9.00019C7.67471 33.8001 6.60019 32.7256 6.60019 31.4001V21.8001C6.60019 20.4746 7.67471 19.4001 9.00019 19.4001ZM25.0002 19.4001H23.4002C22.0747 19.4001 21.0002 20.4746 21.0002 21.8001V31.4001C21.0002 32.7256 22.0747 33.8001 23.4002 33.8001H25.0002C26.3257 33.8001 27.4002 32.7256 27.4002 31.4001V21.8001C27.4002 20.4746 26.3257 19.4001 25.0002 19.4001Z" fill="#E73A5D"/>
</svg>
